HIERARCHY
ROOT Hips
{
 OFFSET 0.000000 0.000000 0.000000
 CHANNELS 6 Xposition Yposition Zposition Yrotation Xrotation Zrotation
 JOINT Chest
 {
  OFFSET 0.000000 9.857222 0.000240
  CHANNELS 3 Yrotation Xrotation Zrotation
  JOINT Chest2
  {
   OFFSET 0.000000 10.876940 -0.000436
   CHANNELS 3 Yrotation Xrotation Zrotation
   JOINT Chest3
   {
    OFFSET 0.000000 9.827798 0.000000
    CHANNELS 3 Yrotation Xrotation Zrotation
    JOINT Chest4
    {
     OFFSET 0.000000 9.827798 0.000000
     CHANNELS 3 Yrotation Xrotation Zrotation
     JOINT Neck
     {
      OFFSET 0.000000 13.831992 0.000000
      CHANNELS 3 Yrotation Xrotation Zrotation
      JOINT Head
      {
       OFFSET 0.000000 9.147643 -0.001036
       CHANNELS 3 Yrotation Xrotation Zrotation
       End Site
       {
        OFFSET 0.000000 17.515799 -0.000541
       }
      }
     }
     JOINT RightCollar
     {
      OFFSET -3.001579 7.717577 0.000000
      CHANNELS 3 Yrotation Xrotation Zrotation
      JOINT RightShoulder
      {
       OFFSET -14.002642 0.000000 0.000000
       CHANNELS 3 Yrotation Xrotation Zrotation
       JOINT RightElbow
       {
        OFFSET -30.053852 0.000000 0.000000
        CHANNELS 3 Yrotation Xrotation Zrotation
        JOINT RightWrist
        {
         OFFSET -24.564923 0.000000 -0.000000
         CHANNELS 3 Yrotation Xrotation Zrotation
         End Site
         {
          OFFSET -18.334355 0.000000 0.000000
         }
        }
       }
      }
     }
     JOINT LeftCollar
     {
      OFFSET 3.001579 7.717577 0.000000
      CHANNELS 3 Yrotation Xrotation Zrotation
      JOINT LeftShoulder
      {
       OFFSET 14.002642 0.000000 0.000000
       CHANNELS 3 Yrotation Xrotation Zrotation
       JOINT LeftElbow
       {
        OFFSET 30.053852 0.000000 0.000000
        CHANNELS 3 Yrotation Xrotation Zrotation
        JOINT LeftWrist
        {
         OFFSET 24.564923 0.000000 -0.000000
         CHANNELS 3 Yrotation Xrotation Zrotation
         End Site
         {
          OFFSET 18.334355 0.000000 0.000000
         }
        }
       }
      }
     }
    }
   }
  }
 }
 JOINT RightHip
 {
  OFFSET -8.003235 -0.001175 -0.000120
  CHANNELS 3 Yrotation Xrotation Zrotation
  JOINT RightKnee
  {
   OFFSET 0.000000 -41.759727 0.000113
   CHANNELS 3 Yrotation Xrotation Zrotation
   JOINT RightAnkle
   {
    OFFSET 0.000000 -40.728748 0.000159
    CHANNELS 3 Yrotation Xrotation Zrotation
    JOINT RightToe
    {
     OFFSET 0.000000 -6.515296 14.732841
     CHANNELS 3 Yrotation Xrotation Zrotation
     End Site
     {
      OFFSET 0.000000 -1.502839 6.412115
     }
    }
   }
  }
 }
 JOINT LeftHip
 {
  OFFSET 8.003235 -0.001175 -0.000120
  CHANNELS 3 Yrotation Xrotation Zrotation
  JOINT LeftKnee
  {
   OFFSET 0.000000 -41.759727 0.000113
   CHANNELS 3 Yrotation Xrotation Zrotation
   JOINT LeftAnkle
   {
    OFFSET 0.000000 -40.728748 0.000159
    CHANNELS 3 Yrotation Xrotation Zrotation
    JOINT LeftToe
    {
     OFFSET 0.000000 -6.515296 14.732841
     CHANNELS 3 Yrotation Xrotation Zrotation
     End Site
     {
      OFFSET 0.000000 -1.502839 6.412115
     }
    }
   }
  }
 }
}
MOTION
Frames: 5
Frame Time: 0.016667
5.898130 90.681913 9.472794 -80.769683 88.463085 -51.350471 0.453731 -8.722225 -3.828730 -0.438579 -3.456666 -0.784411 -0.438579 -3.456666 -0.784411 -0.333276 -2.591943 -0.590613 11.703286 40.458024 6.358770 20.759264 38.559108 11.019987 82.278084 65.157524 70.666412 66.275824 13.282924 -34.228634 8.786147 -15.061475 -13.799395 0.574150 -3.468689 -12.293528 -62.880515 72.963223 -54.271992 -39.880758 10.819233 38.760851 -29.544159 -13.342154 11.180708 8.795469 0.419751 8.480327 -131.980933 -78.520787 137.532256 3.317214 13.135155 -5.244529 -1.361488 -1.580896 -1.362923 2.731444 -1.688284 1.030148 -23.100032 -85.016128 24.784646 3.124246 -0.046481 0.537057 2.360384 -3.189746 -2.001561 -0.110725 -0.104984 0.113730
5.849883 90.661983 9.342114 -60.998858 87.634065 -31.626307 0.403467 -8.792177 -3.766133 -0.479582 -3.428196 -0.746968 -0.479582 -3.428196 -0.746968 -0.363774 -2.570568 -0.562752 11.708602 40.569734 6.291906 20.792287 38.772116 10.927535 80.448768 65.132795 68.828168 67.076595 13.673505 -32.007722 8.805213 -14.677676 -13.684189 0.621944 -3.482502 -12.261050 -60.323826 72.181015 -52.050142 -39.759871 12.595124 37.035154 -29.750498 -13.146839 11.187989 8.601261 0.385420 8.370865 -129.501542 -79.317103 134.970926 2.836430 13.263657 -5.121765 -1.158216 -1.529630 -1.388028 2.668296 -1.667835 0.960696 -21.119229 -84.076625 22.993876 3.408691 0.106771 0.321027 2.309973 -3.330769 -2.019596 -0.098042 -0.010430 0.128620
5.777990 90.636133 9.207367 -51.509826 86.659274 -22.258613 0.318581 -8.822100 -3.624338 -0.513584 -3.397637 -0.707582 -0.513584 -3.397637 -0.707582 -0.389013 -2.547639 -0.533390 11.706305 40.708566 6.233672 20.816198 39.034106 10.857105 78.422400 65.116062 66.837479 68.017977 13.968976 -29.834537 8.851513 -14.206491 -13.594988 0.698612 -3.523428 -12.342745 -57.750544 71.374576 -49.804856 -40.002399 14.203484 35.283784 -29.824112 -12.938695 11.137706 8.440300 0.511020 8.341084 -126.049040 -80.022132 131.430353 2.317739 13.351443 -5.009205 -0.882529 -1.523469 -1.398025 2.540375 -1.582958 0.870053 -20.979176 -83.079592 23.009796 3.734277 0.325344 0.169289 2.283102 -3.502991 -2.073119 -0.088338 0.080924 0.127971
5.719124 90.617733 9.058050 -47.140677 85.696557 -17.930793 0.276889 -8.892737 -3.570333 -0.547941 -3.374895 -0.674217 -0.547941 -3.374895 -0.674217 -0.414564 -2.530573 -0.508546 11.727683 40.882090 6.202175 20.888056 39.356756 10.842199 76.757218 65.073401 65.204499 68.984339 13.987599 -27.993879 8.887730 -13.553217 -13.344574 0.837640 -3.557574 -12.379475 -55.456959 70.574713 -47.872537 -40.514517 15.576063 33.577893 -29.683513 -12.612085 11.025261 8.309147 0.702591 8.281458 -122.646829 -80.709534 127.963481 1.840427 13.462822 -4.863746 -0.670273 -1.523062 -1.410994 2.427687 -1.523446 0.792710 -21.034294 -82.158707 23.230983 4.146756 0.547943 0.047494 2.203640 -3.650769 -2.114997 -0.075410 0.149666 0.111209
5.671161 90.597301 8.915017 -44.232159 84.736431 -15.082648 0.196880 -8.923150 -3.477977 -0.584900 -3.351421 -0.638504 -0.584900 -3.351421 -0.638504 -0.442055 -2.512961 -0.481953 11.759756 41.085689 6.163613 20.985578 39.735479 10.822482 75.585206 65.059015 64.021056 69.896185 13.705761 -26.549650 8.872250 -12.590038 -12.872065 0.986354 -3.653096 -12.322227 -53.186555 69.803126 -46.025666 -41.141362 16.853339 32.029724 -29.345354 -12.141689 10.866675 8.202481 0.846480 8.074584 -119.210309 -81.361963 124.446302 1.395317 13.623221 -4.708349 -0.521353 -1.538105 -1.410624 2.280884 -1.450591 0.715932 -19.820987 -81.277224 22.147000 4.410634 0.653519 -0.044804 2.103692 -3.724289 -2.126896 -0.073059 0.208451 0.074658
